<?xml version="1.0" encoding="UTF-8"?>
<svg xmlns="http://www.w3.org/2000/svg" xmlns:xlink="http://www.w3.org/1999/xlink" width="627" height="372">
  <defs>
    <path d="M609.97 66.384c-1.4-7.1-20.6-13.3-52.7-18.2-7.1-1.1-9.5-6.5-4.1-9.1 6.9-3.3 10.3-6.7 9.7-10.1-3.6-18.6-125.2-31.4-271.6-28.6-146.4 2.8-262.3 20.2-258.7 38.8.7 3.4 5.3 6.7 13.4 9.6 6.4 2.3 6 7.8-.6 9.1-29.9 6.1-46.6 13.1-45.3 20.1 2.9 15 85.7 26.2 200.1 29.2 6.6.2 10.9 4.6 7.8 7.9-1.5 1.6-2.2 3.3-1.9 4.9 2.9 14.9 81.9 25.6 176.5 23.7 94.6-1.9 169-15.4 166.1-30.3-.8-4.3-7.8-8.2-19.6-11.5-7.4-2.1-7.1-8.4.5-9.5 51.5-7.3 82.2-16.5 80.4-26z" id="a"></path>
    <path d="M609.97 66.384c-1.4-7.1-20.6-13.3-52.7-18.2-7.1-1.1-9.5-6.5-4.1-9.1 6.9-3.3 10.3-6.7 9.7-10.1-3.6-18.6-125.2-31.4-271.6-28.6-146.4 2.8-262.3 20.2-258.7 38.8.7 3.4 5.3 6.7 13.4 9.6 6.4 2.3 6 7.8-.6 9.1-29.9 6.1-46.6 13.1-45.3 20.1 2.9 15 85.7 26.2 200.1 29.2 6.6.2 10.9 4.6 7.8 7.9-1.5 1.6-2.2 3.3-1.9 4.9 2.9 14.9 81.9 25.6 176.5 23.7 94.6-1.9 169-15.4 166.1-30.3-.8-4.3-7.8-8.2-19.6-11.5-7.4-2.1-7.1-8.4.5-9.5 51.5-7.3 82.2-16.5 80.4-26z" id="c"></path>
  </defs>
  <g transform="translate(.3 2)" fill="none" fill-rule="evenodd">
    <path d="M625.7 291.5c-1.4-7.1-20.6-13.3-52.7-18.2-7.1-1.1-9.5-6.5-4.1-9.1 6.9-3.3 10.3-6.7 9.7-10.1-3.6-18.6-125.2-31.4-271.6-28.6-146.4 2.8-262.3 20.2-258.7 38.8.7 3.4 5.3 6.7 13.4 9.6 6.4 2.3 6 7.8-.6 9.1-29.9 6.1-46.6 13.1-45.3 20.1 2.9 15 85.7 26.2 200.1 29.2 6.6.2 10.9 4.6 7.8 7.9-1.5 1.6-2.2 3.3-1.9 4.9 2.9 14.9 81.9 25.6 176.5 23.7 94.6-1.9 169-15.4 166.1-30.3-.8-4.3-7.8-8.2-19.6-11.5-7.4-2.1-7.1-8.4.5-9.5 51.5-7.3 82.2-16.5 80.4-26z" fill="orange" fill-rule="nonzero"></path>
    <g transform="translate(15.73 225.116)">
      <mask id="b" fill="#fff">
        <use xlink:href="#a"></use>
      </mask>
      <path d="M554.37-154.916c-12.8-.2-36 7.2-51.7 16.4l-268 157.7 1.3-1.5c.4-.5.3-1.1-.2-1.3-.6-.2-1.4 0-1.8.5l-4.9 5.9-64.2 38.1h40l30.9-18 .1-.1 7.1-1.3c.6-.1 1-.7.9-1.3-.1-.6-.7-1-1.3-.9l-1.2.2 20.8-12 5.8-1c.6-.1 1-.7.9-1.3-.1-.5-.6-.9-1.1-.9l281.3-161.9c15.7-9.3 18.1-17.1 5.3-17.3z" fill="#000" fill-rule="nonzero" opacity=".4" mask="url(#b)"></path>
    </g>
    <g transform="translate(15.73 225.116)">
      <mask id="d" fill="#fff">
        <use xlink:href="#c"></use>
      </mask>
      <path d="M802.37-165.916c-12.8-.2-36 7.2-51.7 16.4l-268 157.7 1.3-1.5c.4-.5.3-1.1-.2-1.3-.6-.2-1.4 0-1.8.5l-4.9 5.9-64.2 38.1h40l30.9-18 .1-.1 7.1-1.3c.6-.1 1-.7.9-1.3-.1-.6-.7-1-1.3-.9l-1.2.2 20.8-12 5.8-1c.6-.1 1-.7.9-1.3-.1-.5-.6-.9-1.1-.9l281.3-161.9c15.7-9.3 18.1-17.1 5.3-17.3z" fill="#000" fill-rule="nonzero" opacity=".4" mask="url(#d)"></path>
    </g>
    <path d="M193.6 134h-40.5c-4.4 0-8-3.6-8-8V73.5c0-10.8-8.7-19.5-19.5-19.5-11.3 0-20.5 9.2-20.5 20.5v59c0 22.4 18.1 40.5 40.5 40.5h48c9.7 0 17.5-7.8 17.5-17.5v-5c0-9.7-7.9-17.5-17.5-17.5z" stroke="#000" stroke-width="3" fill="#22B558" fill-rule="nonzero"></path>
    <path d="M220.6 285.5h-40v-237c0-11 9-20 20-20s20 9 20 20v237z" stroke="#000" stroke-width="3" fill="#22B558" fill-rule="nonzero"></path>
    <g stroke-linecap="round" stroke="#000" stroke-width="3">
      <path d="M169.7 285.5h61M235.7 285.5h5M161.7 285.5h3M220.6 85l6-6M220.6 155l6-6M220.6 205l6-6M220.6 235l6-6M174.6 209l6 6M174.6 119l6 6M174.6 59l6 6M184.6 25l6 6M205.6 29l6-6M98.6 79l6 6M98.6 119l6 6M145.6 85l6-6M101.1 106.5l3 3M103.1 62.5l3 3M177.1 82.5l3 3M177.1 182.5l3 3M177.1 152.5l3 3M177.1 222.5l3 3M177.1 232.5l3 3M177.1 262.5l3 3M224.1 252.5l-3 3M224.1 182.5l-3 3M224.1 142.5l-3 3M224.1 112.5l-3 3M224.1 72.5l-3 3M214.1 28.5l-3 3M143.1 56.5l-3 3M148.1 106.5l-3 3M158.1 130.5l-3 3M169.1 130.5l-3 3M207.6 102l6-6M207.2 94v23M211.1 107.5l-3 3M195.2 161v19M192.1 165.5l3 3M204.2 213v48M204.6 234l6-6M208.1 218.5l-3 3M195.2 51v23M192.1 55.5l3 3M189.6 61l6 6M204.6 248l6-6M208.1 254.5l-3 3M195.2 186v2M195.2 44v2M207.2 123v4M204.2 267v4M187.2 119v23M187.2 240v4M133.6 102l6-6M133.2 94v23M137.1 107.5l-3 3M133.2 85v3M115.2 114v16M112.1 115.5l3 3M109.6 121l6 6M115.2 135v1M165.7 154.5h-19M161.9 150.8l-3 3M152.1 150.5l-3 3M115.2 75v6"></path>
    </g>
    <path d="M200.1 28.5c-1 0-2.2.1-3.2.3 9.6 1.5 16.8 9.8 16.8 19.7V286h6V48.5c0-11-8.6-20-19.6-20zM174.3 135.2h5v38h-5z" fill="#000" fill-rule="nonzero" opacity=".4"></path>
    <path d="M137.7 73.5V126c0 4.4 4.9 9 9.4 9h6c-4.4 0-9.4-4.6-9.4-9V73.5c0-10.8-7.6-19.5-18.4-19.5h.1c-1 0-2.7.1-3.6.3 9.3 1.4 15.9 9.4 15.9 19.2z" fill="#000" fill-opacity=".4" fill-rule="nonzero"></path>
    <g>
      <path d="M441.6 123h-40.5c-4.4 0-8-3.6-8-8V56.5c0-10.8-8.7-19.5-19.5-19.5-11.3 0-20.5 9.2-20.5 20.5v65c0 22.4 18.1 40.5 40.5 40.5h48c9.7 0 17.5-7.8 17.5-17.5v-5c0-9.7-7.9-17.5-17.5-17.5z" stroke="#000" stroke-width="3" fill="#22B558" fill-rule="nonzero"></path>
      <path d="M468.6 274.5h-40v-249c0-11 9-20 20-20s20 9 20 20v249z" stroke="#000" stroke-width="3" fill="#22B558" fill-rule="nonzero"></path>
      <g stroke-linecap="round" stroke="#000" stroke-width="3">
        <path d="M417.7 274.5h61M483.7 274.5h5M409.7 274.5h3M468.6 74l6-6M468.6 144l6-6M468.6 194l6-6M468.6 224l6-6M422.6 198l6 6M422.6 108l6 6M422.6 48l6 6M432.6 2l6 6M453.6 6l6-6M346.6 62l6 6M346.6 108l6 6M393.6 68l6-6M349.1 95.5l3 3M351.1 45.5l3 3M425.1 71.5l3 3M425.1 171.5l3 3M425.1 141.5l3 3M425.1 211.5l3 3M425.1 221.5l3 3M425.1 251.5l3 3M472.1 241.5l-3 3M472.1 171.5l-3 3M472.1 131.5l-3 3M472.1 101.5l-3 3M472.1 61.5l-3 3M462.1 5.5l-3 3M391.1 39.5l-3 3M396.1 95.5l-3 3M406.1 119.5l-3 3M417.1 119.5l-3 3M442.6 69l-6-6M442.2 61v23M439.1 74.5l3 3M443.2 122v35M440.1 144.5l3 3M452.2 191v58M452.6 223l6-6M456.1 207.5l-3 3M454.2 30v23M458.1 34.5l-3 3M460.6 40l-6 6M452.6 237l6-6M456.1 243.5l-3 3M443.2 165v2M454.2 22v2M442.2 90v4M452.2 256v4M458.2 100v23M438.2 208v4M381.6 101l6-6M381.2 93v23M385.1 106.5l-3 3M381.2 84v3M367.2 70v16M364.1 71.5l3 3M361.6 77l6 6M367.2 91v1M417.7 134.5h-19M415.9 130.8l-3 3M406.1 130.5l-3 3M367.2 58v6"></path>
      </g>
      <g stroke="#000" stroke-width="3">
        <path d="m439.1 131.5 3 3M456.1 201.5l-3 3M400.7 147.5h-19M398.9 151.2l-3-3M389.1 151.5l-3-3M408.7 147.5h-3M391.7 134.5h-2"></path>
      </g>
      <path d="M448.1 5.5c-1 0-2.2.1-3.2.3 9.6 1.5 16.8 9.8 16.8 19.7V275h6V25.5c0-11-8.6-20-19.6-20zM422.3 124.2h5v38h-5z" fill="#000" fill-rule="nonzero" opacity=".4"></path>
      <path d="M385.7 56.5V115c0 4.4 4.9 9 9.4 9h6c-4.4 0-9.4-4.6-9.4-9V56.5c0-10.8-7.6-19.5-18.4-19.5h.1c-1 0-2.7.1-3.6.3 9.3 1.4 15.9 9.4 15.9 19.2z" fill="#000" fill-opacity=".4" fill-rule="nonzero"></path>
    </g>
    <ellipse fill="orange" fill-rule="nonzero" cx="165.5" cy="346.5" rx="34.9" ry="8.5"></ellipse>
    <ellipse fill="orange" fill-rule="nonzero" cx="26.7" cy="277.5" rx="26.7" ry="6.5"></ellipse>
    <ellipse fill="orange" fill-rule="nonzero" cx="593" cy="267.8" rx="14.9" ry="3.6"></ellipse>
    <g>
      <g fill-rule="nonzero">
        <path d="M390.7 354c16-12 31-15.6 43.2-15.6 12.2 0 17.1 3.5 1.1 15.6" fill="#000" opacity=".4"></path>
        <path d="M390.1 353.9c0-12.1 9.8-21.9 21.9-21.9 12.1 0 21.9 9.8 21.9 21.9" stroke="#000" stroke-width="3" fill="#E5D92B"></path>
        <path d="M412.6 333.6c-1 0-2.1.1-3.1.2 9.8 1.5 17.3 10.4 17.3 20.1h6.2c-.1-10.6-9.2-20.3-20.4-20.3z" fill="#B2A921"></path>
      </g>
      <path d="M373.2 354c0-8.2 6.7-14.9 14.9-14.9S403 345.8 403 354" stroke="#000" stroke-width="3" fill="#E5D92B" fill-rule="nonzero"></path>
      <path d="M388.8 340.6c-.7 0-1.4 0-2 .1 6.4 1 11.4 6.6 11.4 13.2h4.1c-.1-7.4-6.1-13.3-13.5-13.3z" fill="#B2A921" fill-rule="nonzero"></path>
      <path stroke="#000" stroke-width="3" d="M367.7 354.5h69M438.7 354.5h4M361.7 354.5h4"></path>
    </g>
    <ellipse fill-opacity=".4" fill="#000" cx="263.7" cy="306" rx="26" ry="2"></ellipse>
    <g transform="translate(188.7 127)" stroke="#000" stroke-width="3">
      <circle cx="77.7" cy="97.867" r="65.551"></circle>
      <circle cx="63.9" cy="89.587" r="59.341"></circle>
      <ellipse transform="rotate(16.481 80.588 99.256)" cx="80.588" cy="99.256" rx="49.818" ry="59.34"></ellipse>
      <ellipse transform="rotate(-40.759 80.766 113.753)" cx="80.766" cy="113.753" rx="40.436" ry="48.303"></ellipse>
      <ellipse transform="rotate(-40.759 87.5 88.453)" cx="87.5" cy="88.453" rx="57.825" ry="66.934"></ellipse>
      <ellipse transform="rotate(22.968 78.786 98.005)" cx="78.786" cy="98.005" rx="41.813" ry="49.817"></ellipse>
      <ellipse transform="rotate(-37.504 78.759 77.272)" cx="78.759" cy="77.272" rx="41.814" ry="49.818"></ellipse>
      <ellipse transform="rotate(-37.504 88.607 99.735)" cx="88.607" cy="99.735" rx="41.814" ry="33.672"></ellipse>
      <ellipse transform="rotate(21.495 99.19 76.183)" cx="99.189" cy="76.183" rx="31.187" ry="46.228"></ellipse>
      <ellipse transform="rotate(-20.555 90.625 121.627)" cx="90.625" cy="121.627" rx="31.187" ry="41.813"></ellipse>
      <ellipse transform="rotate(-48.884 99.238 76.109)" cx="99.238" cy="76.109" rx="31.189" ry="46.232"></ellipse>
      <ellipse transform="rotate(-115.95 92.318 73.99)" cx="92.318" cy="73.991" rx="21.805" ry="32.431"></ellipse>
      <path stroke-linecap="round" d="m90.948 26.52 2.07-3.588M36.162 37.146 33.54 34.11M83.772 53.982l3.036 2.208M96.745 62.4l1.104-3.45M139.663 61.848l2.898-1.932M115.375 31.212l.69-2.07M57.552 49.014l-1.518-5.382M52.86 52.05l-3.726-1.38M19.877 65.85l-2.208-1.518M25.536 77.029l-5.245 2.484M29.262 107.113l-5.934-1.104M12.425 91.381l5.934 1.38M50.1 76.477l.828 5.52M102.265 63.228l2.346 5.244M93.294 73.302l5.521-2.622M82.116 69.576l.552 4.14M112.201 111.943l-1.518-5.934M96.745 109.735l3.45-2.622M97.711 95.521l3.864 2.346M133.591 109.045l1.38 4.692M137.179 123.949l-4.83-1.932M117.445 133.333l-2.07-4.278M99.229 137.335l4.278 2.898M81.288 144.925l-.138-3.864M69.558 134.161l1.656-3.588M86.808 124.501l1.38 3.864M44.718 127.537l2.622-3.174M49.824 114.565l-4.14-.552M14.771 115.393l3.588-1.932M4.421 105.043h-2.76M3.593 84.481l-2.622-3.45M12.701 82.273l-2.07-1.932M22.085 131.815l2.623-2.346M25.536 135.403l-1.794 6.9M38.646 143.407l.828 4.279M47.202 138.163h-5.52M51.756 95.107l3.312.966M84.048 81.031l2.76 4.14M78.114 83.101l-.966 3.036M70.938 51.636l.276-3.174M46.374 58.674l-3.036-1.242M60.45 35.628l2.898 3.174M31.194 50.118l-1.242-3.588M58.794 28.59l-.276-3.036M146.011 75.097l3.312-.414M142.975 107.665l4.14.69M131.659 132.781l-4.14-2.208M129.175 141.889l2.07 3.589M117.445 152.378l3.45 1.104M90.948 162.866l.276 2.76M47.478 156.104l-5.244 1.38M31.47 122.017l-5.106.552M68.178 119.671l-.69-3.588M75.354 112.771l3.036-1.38M87.912 107.113v4.14M86.118 97.591l.69-2.484M105.715 79.513l3.174-1.38M149.323 94.003l4.692 1.38M146.425 117.877l2.76.966M14.357 56.742l-1.656-3.45"></path>
    </g>
  </g>
</svg>
